# xmcd CD database file
#
# Track frame offsets:
#	150
#	11459
#	21548
#	33590
#	47146
#	62268
#	80868
#	95741
#	113238
#	126559
#	141763
#	154726
#	169267
#	182135
#	196545
#	215445
#	233345
#	249533
#
# Disc length: 3381 seconds
#
# Revision: 1
# Processed by: cddbd v1.5.1PL0 Copyright (c) Steve Scherf et al.
# Submitted via: CDex 1.51
#
DISCID=f80d3312
DTITLE=POLYSICS - POLYSICS OR DIE!!!!
DYEAR=2004
DGENRE=New Wave
TTITLE0=BUGGIE TECHINICA(new Recording)
TTITLE1=Hot Stuff(New Recording)
TTITLE2=NEW WAVE JACKET
TTITLE3=PLUS CHICKER(new Recording)
TTITLE4=KAJA KAJA GOO
TTITLE5=BLACK OUT FALL OUT(new Recording)
TTITLE6=MY SHARONA
TTITLE7=MAKING SENSE
TTITLE8=LOOKIN' LOOKIN' GAA
TTITLE9=COMMODOLL
TTITLE10=FOR YOUNG ELECTRIC POP
TTITLE11=XCT
TTITLE12=PEACH PIE ON THE BEACH
TTITLE13=each life each end
TTITLE14=CODE4
TTITLE15=Modern(new Recording)
TTITLE16=URGE ON!!
TTITLE17=ENO
EXTD=YEAR: 2004
EXTT0=
EXTT1=
EXTT2=
EXTT3=
EXTT4=
EXTT5=
EXTT6=
EXTT7=
EXTT8=
EXTT9=
EXTT10=
EXTT11=
EXTT12=
EXTT13=
EXTT14=
EXTT15=
EXTT16=
EXTT17=
PLAYORDER=
